<?xml version="1.0" encoding="UTF-8"?><svg id="Layer_2" xmlns="http://www.w3.org/2000/svg" width="108.9mm" height="37.29mm" viewBox="0 0 308.69 105.69"><defs><style>.cls-1{fill:#231f20;stroke-width:0px;}</style></defs><path class="cls-1" d="m1.79,15.94l8.29-.48c6.92-.41,11.58-.61,13.98-.61,7.49,0,13.33,1.34,17.52,4.03,4.19,2.69,7.31,6.33,9.35,10.92,2.05,4.6,3.07,9.9,3.07,15.92,0,4.35-.56,8.33-1.67,11.93-1.12,3.61-2.65,6.6-4.59,8.98s-4.2,4.19-6.77,5.43c-2.57,1.24-5,2.01-7.31,2.32-2.31.31-5.55.46-9.74.46H1.56v-2.01h2.08c2.16,0,3.65-.32,4.48-.96s1.36-1.64,1.6-3c.24-1.36.35-4.52.35-9.48v-28.63c0-4.73-.12-7.79-.35-9.17-.24-1.39-.73-2.33-1.49-2.85-.76-.51-2.41-.77-4.96-.77h-1.49v-2.01Zm15.54,1.23v39.67c0,5.87.09,9.65.28,11.34s.74,2.88,1.67,3.57,2.89,1.03,5.89,1.03c4.39,0,8-.71,10.82-2.12,2.83-1.42,5.19-4.2,7.08-8.36,1.9-4.16,2.85-9.46,2.85-15.92,0-5.02-.55-9.5-1.66-13.44-1.1-3.94-2.68-7.14-4.74-9.61-2.06-2.47-4.34-4.14-6.84-5.04-2.5-.89-5.71-1.33-9.63-1.33-1.88,0-3.79.07-5.73.22Z"/><path class="cls-1" d="m113.28,74.82h-13.57c-2.41-1.98-6.09-7.18-11.05-15.59-1.59-2.69-3.24-5.26-4.95-7.73-1.71-2.47-2.89-3.97-3.53-4.51-.65-.54-1.65-.81-3.01-.81h-2.01v13.18c0,4.67.09,7.73.28,9.17.19,1.44.68,2.52,1.49,3.22.81.7,2.35,1.05,4.63,1.05h2.42v2.01h-24.14v-2.01h1.64c2.16,0,3.65-.32,4.48-.96.83-.64,1.36-1.64,1.58-3,.22-1.36.33-4.52.33-9.48v-29.12c0-4.73-.11-7.78-.33-9.15-.22-1.37-.72-2.32-1.49-2.85-.77-.53-2.43-.79-4.98-.79h-.86v-2.01l7.21-.44c4.81-.26,8.63-.39,11.45-.39,4.81,0,8.72.53,11.73,1.58s5.45,2.77,7.31,5.17c1.86,2.39,2.79,5.25,2.79,8.58,0,3.88-1.21,7.2-3.64,9.94-2.43,2.74-6,4.45-10.71,5.12,2.11,1.2,5.5,5.52,10.19,12.96,3.82,6.04,6.82,10,9,11.86,2.18,1.87,4.76,2.86,7.74,2.98v2.01Zm-38.12-30.65c1.86-.06,3.78-.15,5.76-.26,1.98-.12,3.71-.44,5.17-.96,1.46-.53,2.65-1.29,3.55-2.3.9-1.01,1.62-2.33,2.14-3.96s.78-3.65.78-6.04c0-4.17-.89-7.52-2.66-10.03-1.77-2.51-5.63-3.77-11.58-3.77-.92,0-1.97.06-3.16.18v27.14Z"/><path class="cls-1" d="m156.9,56.35h1.79l-1.08,18.48h-41.76v-2.01h1.04c2.5,0,4.12-.39,4.85-1.18.73-.79,1.2-1.79,1.39-3,.2-1.21.3-4.3.3-9.26v-29.12c0-4.52-.11-7.5-.32-8.93-.21-1.43-.69-2.43-1.45-3-.76-.57-2.35-.85-4.78-.85v-2.01h36.04l1.19,14.8h-1.75c-.79-4.14-1.77-7.08-2.92-8.82-1.15-1.74-2.52-2.83-4.11-3.28-1.59-.45-4.14-.68-7.66-.68h-6.99v24.91h5.36c2.45,0,4.17-.25,5.15-.74.98-.5,1.62-1.25,1.93-2.25.31-1.01.46-2.97.46-5.89h1.75v20.31h-1.75c0-3.3-.24-5.51-.71-6.63-.47-1.12-1.16-1.85-2.06-2.19-.91-.34-2.44-.5-4.59-.5h-5.54v14.05c0,7.04.38,11.17,1.15,12.41.77,1.24,2.84,1.86,6.21,1.86h3.76c2.65,0,4.83-.4,6.55-1.2,1.71-.8,3.34-2.45,4.89-4.95,1.55-2.5,2.77-5.93,3.66-10.31Z"/><path class="cls-1" d="m163.74,15.46h23.43v2.01h-1.26c-2.48,0-4.1.24-4.87.72s-1.28,1.38-1.52,2.69c-.25,1.31-.37,4.44-.37,9.37v38.79c0,5.02-.17,8.84-.5,11.47-.33,2.63-1.27,5.19-2.81,7.68-1.54,2.5-3.59,4.41-6.15,5.76s-5.55,2.01-8.94,2.01c-3.82,0-6.76-.83-8.81-2.47-2.06-1.65-3.09-3.61-3.09-5.89,0-1.37.37-2.53,1.1-3.46.73-.93,1.63-1.4,2.7-1.4s2,.42,2.73,1.27c.73.85,1.1,1.88,1.1,3.11,0,.73-.15,1.49-.45,2.28-.27.7-.41,1.23-.41,1.58,0,.93.47,1.66,1.41,2.19.94.53,2.11.79,3.5.79,2.83,0,5.21-1.06,7.14-3.17,1.93-2.12,3.1-4.61,3.5-7.49.4-2.88.6-7.62.6-14.25V30.25c0-4.73-.12-7.78-.35-9.15-.24-1.37-.73-2.32-1.49-2.85-.76-.53-2.41-.79-4.96-.79h-1.19v-2.01Z"/><path class="cls-1" d="m205.48,43.72h10.84c5.95,0,9.15,3.15,9.15,7.64,0,3.69-2.22,6.09-4.8,6.8,2.22.62,5.91,2.8,5.91,7.69,0,6.22-4.67,8.98-10.09,8.98h-11.02v-31.1Zm10.04,13.37c5.38,0,7.42-2,7.42-5.6,0-3.07-2.13-5.55-6.49-5.55h-8.62v11.15h7.69Zm-7.69,15.51h8.75c4.09,0,7.51-2.04,7.51-6.62,0-3.95-2.53-6.67-8.8-6.67h-7.46v13.29Z"/><path class="cls-1" d="m240.05,74.82v-11.69c0-.27-.09-.58-.18-.71l-11.11-18.71h2.8c3.11,5.29,8.53,14.49,9.86,16.8,1.33-2.31,6.8-11.42,10.13-16.8h2.67l-11.6,18.88c-.09.18-.13.36-.13.67v11.55h-2.44Z"/><path class="cls-1" d="m276.83,66.34c0,6.93-3.07,8.93-7.2,8.93-1.33,0-1.91-.13-2.67-.27v-2.18c.62.13,1.73.22,2.75.22,4.18,0,4.71-3.24,4.71-6.75v-22.57h2.4v22.62Z"/><path class="cls-1" d="m285.36,43.72h2.4v16.17c2.49-2.4,11.38-10.75,16.93-16.17h3.2l-13.95,13.24,14.75,17.86h-2.98l-13.51-16.31-4.44,3.91v12.4h-2.4v-31.1Z"/></svg>