<?xml version="1.0" encoding="UTF-8"?><svg xmlns="http://www.w3.org/2000/svg" width="200mm" height="200mm" viewBox="0 0 566.93 566.93"><defs><style>.cls-1{fill:#231f20;}.cls-1,.cls-2{stroke-width:0px;}.cls-2{fill:#cac7b9;}</style></defs><g id="Layer_1"><circle class="cls-2" cx="283.46" cy="283.46" r="283.46"/></g><g id="Layer_2"><path class="cls-1" d="m90.57,218.26h-2.51v-83.06c0-6.06-.14-9.98-.42-11.75-.28-1.77-.99-3.08-2.12-3.94-1.14-.86-3.12-1.29-5.95-1.29v-3.49c2.53,0,5.58-.35,9.14-1.06,3.56-.71,5.99-1.41,7.27-2.12h1.35v49.11c3-3.18,6.05-5.56,9.14-7.12,3.09-1.57,6.22-2.35,9.4-2.35,7.6,0,13.82,3.11,18.67,9.32,4.85,6.21,7.27,14.15,7.27,23.8s-2.49,17.78-7.47,24.25c-4.98,6.47-11.44,9.7-19.38,9.7-3.91,0-7.33-.96-10.27-2.88-2.94-1.92-5.4-4.77-7.37-8.56-2.79,3.29-5.04,7.1-6.76,11.44Zm6.76-53.12v24.33c0,6.26.35,10.77,1.06,13.53.71,2.75,2.41,5.39,5.12,7.92s5.86,3.79,9.46,3.79c5.54,0,9.94-2.68,13.23-8.03,3.28-5.35,4.92-13.06,4.92-23.11,0-9.25-1.53-16.28-4.6-21.1-3.07-4.82-7.16-7.24-12.26-7.24-2.92,0-5.78.82-8.59,2.46-2.81,1.64-5.59,4.13-8.34,7.46Z"/><path class="cls-1" d="m177.08,204.01l12.23-34.48c1.76-5.05,2.64-7.85,2.64-8.41,0-2.53-2.38-3.84-7.15-3.94v-3.49h18.54v3.49c-2.88.15-4.98,1.05-6.31,2.69-1.33,1.64-2.98,5.27-4.96,10.87l-23.49,66.76c-2.23,6.37-4.21,10.7-5.92,13-1.72,2.3-3.6,3.45-5.66,3.45-2.79,0-4.18-1.49-4.18-4.47,0-3.44,2.23-6.34,6.69-8.71,2.62-1.36,4.37-2.53,5.25-3.49.88-.96,1.75-2.7,2.61-5.23l5.02-14.78-19.83-50.02c-1.76-4.4-3.22-7.17-4.38-8.34-1.16-1.16-3.13-1.74-5.92-1.74v-3.49h24.2v3.49c-4.25.15-6.37,1.19-6.37,3.11,0,.76.84,3.23,2.51,7.43l14.48,36.3Z"/><path class="cls-1" d="m221.04,202.76h79.11v6.8h-4.27c-8.37,0-13.86.81-16.45,2.44-2.6,1.63-4.31,4.66-5.15,9.09-.84,4.43-1.26,14.98-1.26,31.63v130.97c0,16.95-.56,29.86-1.7,38.73-1.13,8.87-4.29,17.52-9.48,25.94-5.19,8.43-12.12,14.91-20.78,19.44-8.66,4.53-18.73,6.8-30.2,6.8-12.89,0-22.81-2.79-29.76-8.35-6.95-5.57-10.42-12.2-10.42-19.88,0-4.63,1.24-8.53,3.7-11.68,2.47-3.16,5.51-4.73,9.1-4.73s6.76,1.43,9.23,4.29c2.47,2.86,3.7,6.36,3.7,10.5,0,2.46-.5,5.03-1.51,7.69-.92,2.37-1.38,4.14-1.38,5.32,0,3.15,1.59,5.62,4.77,7.39,3.18,1.77,7.12,2.66,11.8,2.66,9.54,0,17.58-3.57,24.11-10.72,6.53-7.15,10.46-15.57,11.8-25.28,1.34-9.71,2.01-25.75,2.01-48.12v-130.97c0-15.96-.4-26.26-1.19-30.9-.8-4.63-2.47-7.83-5.02-9.61-2.55-1.77-8.14-2.66-16.76-2.66h-4.02v-6.8Z"/><path class="cls-1" d="m361.67,304.76l51.98-55.14c12.05-12.71,18.08-21.78,18.08-27.2,0-8.18-6.03-12.47-18.08-12.86v-6.8h64.16v6.8c-5.27.1-10.57,1.43-15.88,3.99-5.32,2.56-10.19,5.91-14.63,10.05-4.44,4.14-12.68,12.86-24.74,26.17l-31.02,33.7,63.79,75.84c14.57,17.44,24.32,27.99,29.26,31.63,4.94,3.65,11.34,5.47,19.21,5.47v6.8h-88.4v-6.8h3.39c9.54,0,15.49-.94,17.83-2.81,2.34-1.87,3.52-4.19,3.52-6.95,0-4.14-6.07-13.35-18.21-27.64l-48.09-57.06-12.18,12.57v36.51c0,15.77.33,26.09,1.01,30.97.67,4.88,2.36,8.5,5.08,10.87s7.93,3.55,15.63,3.55h3.27v6.8h-76.47v-6.8h5.27c7.28,0,12.33-1.08,15.13-3.25,2.8-2.17,4.6-5.54,5.4-10.13.79-4.58,1.19-15.25,1.19-32v-98.31c0-16.56-.44-27.1-1.32-31.63-.88-4.53-2.62-7.59-5.21-9.17-2.6-1.58-8.66-2.37-18.21-2.37v-6.8h75.34v6.8h-3.14c-8.37,0-13.86.81-16.45,2.44-2.6,1.63-4.33,4.66-5.21,9.09-.88,4.43-1.32,14.98-1.32,31.63v52.04Z"/></g></svg>